<mxfile host="app.diagrams.net" agent="Mozilla/5.0 (Windows NT 10.0; Win64; x64) AppleWebKit/537.36 (KHTML, like Gecko) Chrome/140.0.0.0 Safari/537.36" version="28.2.3">
  <diagram name="Page-1" id="eb1XIhUrqlEJQNQFPCEy">
    <mxGraphModel dx="2231" dy="791" grid="1" gridSize="10" guides="1" tooltips="1" connect="1" arrows="1" fold="1" page="1" pageScale="1" pageWidth="850" pageHeight="1100" math="0" shadow="0">
      <root>
        <mxCell id="0" />
        <mxCell id="1" parent="0" />
        <mxCell id="Cid6bU5TikV_ZvuhiSt9-3" value="User&lt;div&gt;&lt;br&gt;&lt;/div&gt;" style="shape=umlActor;verticalLabelPosition=bottom;verticalAlign=top;html=1;outlineConnect=0;strokeWidth=3;" vertex="1" parent="1">
          <mxGeometry x="70" y="60" width="30" height="60" as="geometry" />
        </mxCell>
        <mxCell id="Cid6bU5TikV_ZvuhiSt9-6" value="" style="rounded=0;whiteSpace=wrap;html=1;strokeWidth=4;" vertex="1" parent="1">
          <mxGeometry x="75" y="150" width="20" height="490" as="geometry" />
        </mxCell>
        <mxCell id="Cid6bU5TikV_ZvuhiSt9-8" value="" style="rounded=0;whiteSpace=wrap;html=1;strokeWidth=4;" vertex="1" parent="1">
          <mxGeometry x="730" y="150" width="20" height="490" as="geometry" />
        </mxCell>
        <mxCell id="Cid6bU5TikV_ZvuhiSt9-9" value="&lt;font style=&quot;font-size: 24px;&quot;&gt;GoalSync&lt;/font&gt;" style="whiteSpace=wrap;html=1;strokeWidth=3;" vertex="1" parent="1">
          <mxGeometry x="662.5" y="67.5" width="155" height="45" as="geometry" />
        </mxCell>
        <mxCell id="Cid6bU5TikV_ZvuhiSt9-10" value="" style="rounded=0;whiteSpace=wrap;html=1;fillColor=none;strokeWidth=4;" vertex="1" parent="1">
          <mxGeometry y="150" width="790" height="180" as="geometry" />
        </mxCell>
        <mxCell id="Cid6bU5TikV_ZvuhiSt9-11" value="" style="endArrow=none;html=1;rounded=0;exitX=0;exitY=0.5;exitDx=0;exitDy=0;entryX=1;entryY=0.5;entryDx=0;entryDy=0;dashed=1;strokeWidth=2;" edge="1" parent="1" source="Cid6bU5TikV_ZvuhiSt9-10" target="Cid6bU5TikV_ZvuhiSt9-10">
          <mxGeometry width="50" height="50" relative="1" as="geometry">
            <mxPoint x="390" y="400" as="sourcePoint" />
            <mxPoint x="440" y="350" as="targetPoint" />
          </mxGeometry>
        </mxCell>
        <mxCell id="Cid6bU5TikV_ZvuhiSt9-17" value="" style="endArrow=classic;html=1;rounded=0;exitX=1.25;exitY=0.094;exitDx=0;exitDy=0;exitPerimeter=0;entryX=0;entryY=0.092;entryDx=0;entryDy=0;entryPerimeter=0;" edge="1" parent="1" source="Cid6bU5TikV_ZvuhiSt9-6" target="Cid6bU5TikV_ZvuhiSt9-8">
          <mxGeometry width="50" height="50" relative="1" as="geometry">
            <mxPoint x="390" y="400" as="sourcePoint" />
            <mxPoint x="440" y="350" as="targetPoint" />
          </mxGeometry>
        </mxCell>
        <mxCell id="Cid6bU5TikV_ZvuhiSt9-18" value="&lt;font style=&quot;font-size: 20px;&quot;&gt;Register&lt;/font&gt;" style="edgeLabel;html=1;align=center;verticalAlign=middle;resizable=0;points=[];" vertex="1" connectable="0" parent="Cid6bU5TikV_ZvuhiSt9-17">
          <mxGeometry x="0.0254" relative="1" as="geometry">
            <mxPoint x="2" as="offset" />
          </mxGeometry>
        </mxCell>
        <mxCell id="Cid6bU5TikV_ZvuhiSt9-19" value="" style="endArrow=classic;html=1;rounded=0;exitX=1.25;exitY=0.094;exitDx=0;exitDy=0;exitPerimeter=0;entryX=0;entryY=0.092;entryDx=0;entryDy=0;entryPerimeter=0;" edge="1" parent="1">
          <mxGeometry width="50" height="50" relative="1" as="geometry">
            <mxPoint x="95" y="281" as="sourcePoint" />
            <mxPoint x="725" y="280" as="targetPoint" />
          </mxGeometry>
        </mxCell>
        <mxCell id="Cid6bU5TikV_ZvuhiSt9-22" value="&lt;font style=&quot;font-size: 21px;&quot;&gt;Login&lt;/font&gt;" style="edgeLabel;html=1;align=center;verticalAlign=middle;resizable=0;points=[];" vertex="1" connectable="0" parent="Cid6bU5TikV_ZvuhiSt9-19">
          <mxGeometry x="0.0413" y="-1" relative="1" as="geometry">
            <mxPoint x="2" as="offset" />
          </mxGeometry>
        </mxCell>
        <mxCell id="Cid6bU5TikV_ZvuhiSt9-28" value="&lt;font style=&quot;font-size: 16px;&quot;&gt;alt&lt;/font&gt;" style="shape=card;whiteSpace=wrap;html=1;size=40;direction=west;" vertex="1" parent="1">
          <mxGeometry y="150" width="60" height="70" as="geometry" />
        </mxCell>
        <mxCell id="Cid6bU5TikV_ZvuhiSt9-29" value="" style="endArrow=classic;html=1;rounded=0;entryX=-0.05;entryY=0.551;entryDx=0;entryDy=0;entryPerimeter=0;" edge="1" parent="1">
          <mxGeometry width="50" height="50" relative="1" as="geometry">
            <mxPoint x="95" y="480" as="sourcePoint" />
            <mxPoint x="729" y="482.03" as="targetPoint" />
          </mxGeometry>
        </mxCell>
        <mxCell id="Cid6bU5TikV_ZvuhiSt9-30" value="&lt;font style=&quot;font-size: 20px;&quot;&gt;Add Expense/Goal&lt;/font&gt;" style="edgeLabel;html=1;align=center;verticalAlign=middle;resizable=0;points=[];" vertex="1" connectable="0" parent="Cid6bU5TikV_ZvuhiSt9-29">
          <mxGeometry x="0.0473" y="-1" relative="1" as="geometry">
            <mxPoint x="-2" y="-2" as="offset" />
          </mxGeometry>
        </mxCell>
        <mxCell id="Cid6bU5TikV_ZvuhiSt9-32" value="" style="endArrow=classic;html=1;rounded=0;entryX=-0.05;entryY=0.551;entryDx=0;entryDy=0;entryPerimeter=0;" edge="1" parent="1">
          <mxGeometry width="50" height="50" relative="1" as="geometry">
            <mxPoint x="729" y="540" as="sourcePoint" />
            <mxPoint x="95" y="542.03" as="targetPoint" />
          </mxGeometry>
        </mxCell>
        <mxCell id="Cid6bU5TikV_ZvuhiSt9-33" value="&lt;font style=&quot;font-size: 20px;&quot;&gt;Notify Group&lt;/font&gt;" style="edgeLabel;html=1;align=center;verticalAlign=middle;resizable=0;points=[];" vertex="1" connectable="0" parent="Cid6bU5TikV_ZvuhiSt9-32">
          <mxGeometry x="0.0473" y="-1" relative="1" as="geometry">
            <mxPoint x="28" as="offset" />
          </mxGeometry>
        </mxCell>
        <mxCell id="Cid6bU5TikV_ZvuhiSt9-34" value="" style="endArrow=classic;html=1;rounded=0;entryX=-0.05;entryY=0.551;entryDx=0;entryDy=0;entryPerimeter=0;" edge="1" parent="1">
          <mxGeometry width="50" height="50" relative="1" as="geometry">
            <mxPoint x="729" y="590" as="sourcePoint" />
            <mxPoint x="95" y="592.03" as="targetPoint" />
          </mxGeometry>
        </mxCell>
        <mxCell id="Cid6bU5TikV_ZvuhiSt9-35" value="&lt;font style=&quot;font-size: 20px;&quot;&gt;Update Dashboard&lt;/font&gt;" style="edgeLabel;html=1;align=center;verticalAlign=middle;resizable=0;points=[];" vertex="1" connectable="0" parent="Cid6bU5TikV_ZvuhiSt9-34">
          <mxGeometry x="0.0473" y="-1" relative="1" as="geometry">
            <mxPoint x="28" as="offset" />
          </mxGeometry>
        </mxCell>
        <mxCell id="Cid6bU5TikV_ZvuhiSt9-36" value="" style="endArrow=classic;html=1;rounded=0;entryX=-0.05;entryY=0.551;entryDx=0;entryDy=0;entryPerimeter=0;" edge="1" parent="1">
          <mxGeometry width="50" height="50" relative="1" as="geometry">
            <mxPoint x="96" y="360" as="sourcePoint" />
            <mxPoint x="730" y="362.03" as="targetPoint" />
          </mxGeometry>
        </mxCell>
        <mxCell id="Cid6bU5TikV_ZvuhiSt9-37" value="&lt;font style=&quot;font-size: 20px;&quot;&gt;Create Dashboard&lt;/font&gt;" style="edgeLabel;html=1;align=center;verticalAlign=middle;resizable=0;points=[];" vertex="1" connectable="0" parent="Cid6bU5TikV_ZvuhiSt9-36">
          <mxGeometry x="0.0473" y="-1" relative="1" as="geometry">
            <mxPoint x="-3" as="offset" />
          </mxGeometry>
        </mxCell>
        <mxCell id="Cid6bU5TikV_ZvuhiSt9-38" value="" style="endArrow=classic;html=1;rounded=0;entryX=-0.05;entryY=0.551;entryDx=0;entryDy=0;entryPerimeter=0;" edge="1" parent="1">
          <mxGeometry width="50" height="50" relative="1" as="geometry">
            <mxPoint x="95" y="413.99" as="sourcePoint" />
            <mxPoint x="729" y="416.02" as="targetPoint" />
          </mxGeometry>
        </mxCell>
        <mxCell id="Cid6bU5TikV_ZvuhiSt9-39" value="&lt;font style=&quot;font-size: 20px;&quot;&gt;Add Members&lt;/font&gt;" style="edgeLabel;html=1;align=center;verticalAlign=middle;resizable=0;points=[];" vertex="1" connectable="0" parent="Cid6bU5TikV_ZvuhiSt9-38">
          <mxGeometry x="0.0473" y="-1" relative="1" as="geometry">
            <mxPoint x="-2" y="-1" as="offset" />
          </mxGeometry>
        </mxCell>
        <mxCell id="Cid6bU5TikV_ZvuhiSt9-40" value="" style="rounded=0;whiteSpace=wrap;html=1;fillColor=none;strokeWidth=4;" vertex="1" parent="1">
          <mxGeometry y="390" width="790" height="240" as="geometry" />
        </mxCell>
        <mxCell id="Cid6bU5TikV_ZvuhiSt9-41" value="&lt;font style=&quot;font-size: 16px;&quot;&gt;Loop&lt;/font&gt;" style="shape=card;whiteSpace=wrap;html=1;size=40;direction=west;" vertex="1" parent="1">
          <mxGeometry y="390" width="60" height="70" as="geometry" />
        </mxCell>
      </root>
    </mxGraphModel>
  </diagram>
</mxfile>
